<svg width="247" height="23" viewBox="0 0 247 23" fill="none" xmlns="http://www.w3.org/2000/svg">
    <path d="M0.552 0.215999C0.384 0.215999 0.312 0.287999 0.312 0.431999V1.176C0.312 1.32 0.384 1.392 0.552 1.392H6.36V17.784C6.36 17.928 6.432 18 6.576 18H7.464C7.608 18 7.68 17.928 7.68 17.784V1.392H13.464C13.632 1.392 13.704 1.32 13.704 1.176V0.431999C13.704 0.287999 13.632 0.215999 13.464 0.215999H0.552ZM16.5116 0.887999C15.9356 0.887999 15.6476 1.176 15.6476 1.752C15.6476 2.352 15.9356 2.664 16.5116 2.664C17.1116 2.664 17.3996 2.352 17.3996 1.752C17.3996 1.176 17.1116 0.887999 16.5116 0.887999ZM16.1036 5.16C15.9596 5.16 15.8876 5.232 15.8876 5.376V17.784C15.8876 17.928 15.9596 18 16.1036 18H16.9436C17.0876 18 17.1596 17.928 17.1596 17.784V5.376C17.1596 5.232 17.0876 5.16 16.9436 5.16H16.1036ZM33.0713 4.992C31.5593 4.992 30.1433 5.208 28.7993 5.64C28.0313 5.208 26.8553 4.992 25.2473 4.992C23.8313 4.992 22.4633 5.088 21.1673 5.256C20.9993 5.28 20.9033 5.352 20.9033 5.496V17.784C20.9033 17.928 20.9753 18 21.1193 18H21.9593C22.1033 18 22.1753 17.928 22.1753 17.784V6.144H25.4153C26.8793 6.144 27.4073 6.192 28.0793 6.672C28.7753 7.152 28.9673 8.16 28.9673 10.008V17.784C28.9673 17.928 29.0393 18 29.1833 18H30.0233C30.1433 18 30.2153 17.928 30.2153 17.784L30.2393 10.008C30.2393 8.376 30.0233 7.2 29.6153 6.48C30.5993 6.264 31.7993 6.144 33.2393 6.144C34.6073 6.144 35.2553 6.24 35.9033 6.792C36.5753 7.344 36.7913 8.424 36.7913 10.272V17.784C36.7913 17.928 36.8633 18 37.0073 18H37.8233C37.9673 18 38.0393 17.928 38.0393 17.784L38.0633 10.272C38.0633 7.944 37.7513 6.624 36.8633 5.88C35.9993 5.136 35.0153 4.992 33.0713 4.992ZM46.3718 4.992C44.1878 4.992 43.0358 5.256 42.2678 6.312C41.4998 7.368 41.3318 8.784 41.3318 11.544C41.3318 14.208 41.6438 15.96 42.2918 16.824C42.9398 17.688 44.2838 18.12 46.3718 18.12C47.9798 18.12 49.1798 18.072 49.9718 17.976C50.1158 17.952 50.1878 17.88 50.1878 17.76V17.208C50.1878 17.04 50.1158 16.968 49.9478 16.968H46.3718C44.8598 16.968 43.8518 16.656 43.3717 16.032C42.8918 15.384 42.6278 14.112 42.6038 12.192H50.7398C51.1958 12.192 51.2678 12.096 51.2678 11.736V11.04C51.2438 8.616 50.9078 6.984 50.2598 6.192C49.6118 5.4 48.3158 4.992 46.3718 4.992ZM46.3718 6.144C47.8358 6.144 48.8198 6.456 49.2758 7.08C49.7318 7.704 49.9718 9.024 49.9958 11.016H42.6038C42.6278 9.024 42.8678 7.728 43.3478 7.104C43.8278 6.456 44.8358 6.144 46.3718 6.144ZM70.1445 0.263999C68.7285 0.144 67.1205 0.0959988 65.2965 0.0959988C63.4725 0.0959988 62.0805 0.383999 61.1445 0.935999C60.2085 1.488 59.7285 2.472 59.7285 3.912V4.368C59.7285 6.264 60.2085 7.368 62.2245 8.208L68.0325 10.632C69.3285 11.232 69.9765 12.264 69.9765 13.752V14.28C69.9765 15.768 69.2805 16.416 68.1765 16.728C67.3845 16.92 66.7605 16.944 65.7765 16.944H59.6805C59.5365 16.944 59.4645 17.016 59.4645 17.136V17.736C59.4645 17.88 59.5365 17.952 59.6565 17.952C61.0965 18.072 63.0405 18.12 65.4645 18.12C66.1845 18.12 66.7605 18.096 67.1685 18.072C67.5765 18.048 68.0805 17.976 68.6805 17.856C69.2805 17.712 69.7365 17.52 70.0485 17.28C70.7205 16.776 71.2965 15.744 71.2965 14.304V13.656C71.2965 11.712 70.4565 10.368 68.8005 9.624L63.1845 7.224C61.4805 6.528 61.0725 5.784 61.0725 4.248V3.936C61.0725 2.088 62.2965 1.272 64.9605 1.272H70.1685C70.2885 1.272 70.3605 1.2 70.3605 1.056V0.456C70.3605 0.335999 70.2885 0.263999 70.1445 0.263999ZM78.9264 4.992C76.7424 4.992 75.5904 5.256 74.8224 6.312C74.0544 7.368 73.8864 8.784 73.8864 11.544C73.8864 14.208 74.1984 15.96 74.8464 16.824C75.4944 17.688 76.8384 18.12 78.9264 18.12C80.5344 18.12 81.7344 18.072 82.5264 17.976C82.6704 17.952 82.7424 17.88 82.7424 17.76V17.208C82.7424 17.04 82.6704 16.968 82.5024 16.968H78.9264C77.4144 16.968 76.4064 16.656 75.9264 16.032C75.4464 15.384 75.1824 14.112 75.1584 12.192H83.2944C83.7504 12.192 83.8224 12.096 83.8224 11.736V11.04C83.7984 8.616 83.4624 6.984 82.8144 6.192C82.1664 5.4 80.8704 4.992 78.9264 4.992ZM78.9264 6.144C80.3904 6.144 81.3744 6.456 81.8304 7.08C82.2864 7.704 82.5264 9.024 82.5504 11.016H75.1584C75.1824 9.024 75.4224 7.728 75.9024 7.104C76.3824 6.456 77.3904 6.144 78.9264 6.144ZM89.9278 4.992C87.8638 4.992 86.8318 5.784 86.8318 7.344V17.784C86.8318 17.928 86.9038 18 87.0478 18H87.8878C88.0318 18 88.1038 17.928 88.1038 17.784V7.536C88.1038 6.6 88.7758 6.144 90.1438 6.144H92.2798C92.4478 6.168 92.5198 6.096 92.5198 5.928V5.4C92.5198 5.28 92.4478 5.208 92.3278 5.16C91.7998 5.04 91.0078 4.992 89.9278 4.992ZM95.4257 0.887999C94.8497 0.887999 94.5617 1.176 94.5617 1.752C94.5617 2.352 94.8497 2.664 95.4257 2.664C96.0257 2.664 96.3137 2.352 96.3137 1.752C96.3137 1.176 96.0257 0.887999 95.4257 0.887999ZM95.0177 5.16C94.8737 5.16 94.8017 5.232 94.8017 5.376V17.784C94.8017 17.928 94.8737 18 95.0177 18H95.8577C96.0017 18 96.0737 17.928 96.0737 17.784V5.376C96.0737 5.232 96.0017 5.16 95.8577 5.16H95.0177ZM104.473 4.992C102.289 4.992 101.137 5.256 100.369 6.312C99.6013 7.368 99.4333 8.784 99.4333 11.544C99.4333 14.208 99.7453 15.96 100.393 16.824C101.041 17.688 102.385 18.12 104.473 18.12C106.081 18.12 107.281 18.072 108.073 17.976C108.217 17.952 108.289 17.88 108.289 17.76V17.208C108.289 17.04 108.217 16.968 108.049 16.968H104.473C102.961 16.968 101.953 16.656 101.473 16.032C100.993 15.384 100.729 14.112 100.705 12.192H108.841C109.297 12.192 109.369 12.096 109.369 11.736V11.04C109.345 8.616 109.009 6.984 108.361 6.192C107.713 5.4 106.417 4.992 104.473 4.992ZM104.473 6.144C105.937 6.144 106.921 6.456 107.377 7.08C107.833 7.704 108.073 9.024 108.097 11.016H100.705C100.729 9.024 100.969 7.728 101.449 7.104C101.929 6.456 102.937 6.144 104.473 6.144ZM115.955 4.992C114.923 4.992 114.251 5.04 113.315 5.4C112.427 5.712 111.875 6.504 111.875 7.68V8.208C111.875 9.72 112.355 10.68 114.059 11.376L117.827 12.912C118.907 13.392 119.291 13.944 119.291 14.88V15.24C119.291 16.584 118.523 16.968 116.003 16.968H111.971C111.827 16.968 111.755 17.04 111.755 17.208V17.76C111.755 17.88 111.827 17.952 111.947 17.976C112.739 18.072 114.083 18.12 115.979 18.12C117.683 18.12 118.883 17.928 119.555 17.544C120.227 17.136 120.563 16.368 120.563 15.24V14.904C120.563 13.488 120.131 12.576 118.427 11.88L114.779 10.368C113.459 9.816 113.147 9.288 113.147 8.232V7.776C113.147 6.696 113.963 6.144 115.571 6.144H119.819C119.963 6.144 120.035 6.072 120.035 5.928V5.352C120.035 5.232 119.963 5.16 119.843 5.136C119.003 5.04 117.707 4.992 115.955 4.992ZM134.099 0.0959988C132.563 0.0959988 131.195 0.119998 129.971 0.191999C129.803 0.191999 129.731 0.263999 129.731 0.407999V17.784C129.731 17.928 129.803 18 129.971 18H130.835C131.003 18 131.075 17.928 131.075 17.784V11.184H134.099C135.131 11.184 135.947 11.16 136.547 11.136C137.171 11.112 137.795 11.016 138.395 10.896C139.019 10.776 139.499 10.584 139.811 10.368C140.891 9.576 141.371 8.28 141.371 5.664C141.371 3.096 140.891 1.776 139.787 0.983999C139.139 0.503999 137.819 0.24 136.547 0.167999C135.923 0.119998 135.107 0.0959988 134.099 0.0959988ZM134.027 1.272C135.755 1.272 136.619 1.32 137.651 1.512C138.155 1.608 138.539 1.752 138.803 1.944C139.667 2.592 140.051 3.624 140.051 5.688C140.027 8.016 139.595 9.096 138.371 9.6C137.867 9.816 136.715 9.936 135.827 9.96C135.395 9.984 134.795 9.984 134.027 9.984H131.075V1.272H134.027ZM144.541 0.215999C144.397 0.215999 144.325 0.287999 144.325 0.431999V17.784C144.325 17.928 144.397 18 144.541 18H145.357C145.525 18 145.597 17.928 145.597 17.784V0.431999C145.597 0.287999 145.525 0.215999 145.357 0.215999H144.541ZM152.869 4.992C151.789 4.992 150.805 5.04 149.869 5.16C149.749 5.184 149.677 5.28 149.677 5.4V5.928C149.677 6.072 149.749 6.144 149.893 6.144H152.869C155.341 6.144 156.757 6.864 156.757 8.904V10.968H152.317C149.605 10.968 148.453 11.976 148.453 14.376C148.453 15.792 148.765 16.752 149.389 17.304C150.037 17.856 151.165 18.12 152.773 18.12C155.149 18.12 156.757 18 157.597 17.736C157.885 17.664 158.029 17.472 158.029 17.184V8.76C158.029 5.976 156.109 4.992 152.869 4.992ZM156.757 16.704C155.917 16.896 154.645 16.992 152.989 16.992C150.493 16.992 149.749 16.32 149.749 14.376C149.749 12.744 150.469 12.096 152.317 12.096H156.757V16.704ZM170.573 5.16C170.405 5.16 170.333 5.232 170.333 5.376V16.704C169.133 16.872 167.861 16.968 166.541 16.968C164.621 16.968 163.589 16.584 163.181 15.288C162.917 14.352 162.845 13.368 162.845 11.448V5.376C162.845 5.232 162.773 5.16 162.605 5.16H161.789C161.621 5.16 161.549 5.232 161.549 5.376V11.472C161.549 12.888 161.597 14.016 161.717 14.808C161.837 15.6 162.077 16.248 162.437 16.8C163.181 17.856 164.333 18.12 166.541 18.12C167.693 18.12 168.965 18.048 170.333 17.88V18.168C170.333 19.536 170.069 20.448 169.565 20.904C169.061 21.384 168.029 21.624 166.469 21.624H163.205C163.061 21.624 162.989 21.696 162.989 21.864V22.416C162.989 22.584 163.061 22.656 163.205 22.656C164.141 22.728 165.221 22.776 166.469 22.776C168.557 22.776 169.949 22.416 170.597 21.72C171.269 21.024 171.605 19.632 171.629 17.544V5.376C171.629 5.232 171.557 5.16 171.389 5.16H170.573ZM179.964 4.992C177.756 4.992 176.628 5.256 175.884 6.336C175.524 6.888 175.284 7.56 175.164 8.352C175.044 9.144 174.996 10.248 174.996 11.664C174.996 13.056 175.044 14.136 175.164 14.904C175.284 15.648 175.524 16.296 175.932 16.824C176.724 17.88 177.972 18.12 180.372 18.12C181.644 18.12 182.796 18.072 183.78 17.976V18.168C183.78 19.536 183.516 20.448 183.012 20.904C182.508 21.384 181.476 21.624 179.916 21.624H176.7C176.556 21.624 176.484 21.696 176.484 21.864V22.416C176.484 22.584 176.556 22.656 176.7 22.656C177.612 22.728 178.692 22.776 179.916 22.776C182.052 22.776 183.276 22.536 184.044 21.696C184.812 20.856 185.052 19.752 185.052 17.64V5.544C185.052 5.328 184.956 5.208 184.764 5.184C182.82 5.064 181.212 4.992 179.964 4.992ZM183.78 16.848C182.844 16.92 181.716 16.968 180.372 16.968C178.524 16.968 177.54 16.704 176.94 15.936C176.58 15.48 176.388 14.52 176.316 13.56C176.292 13.08 176.268 12.456 176.268 11.664C176.268 9.36 176.484 7.872 176.916 7.176C177.348 6.48 178.356 6.144 179.964 6.144H183.78V16.848ZM191.834 4.992C189.77 4.992 188.738 5.784 188.738 7.344V17.784C188.738 17.928 188.81 18 188.954 18H189.794C189.938 18 190.01 17.928 190.01 17.784V7.536C190.01 6.6 190.682 6.144 192.05 6.144H194.186C194.354 6.168 194.426 6.096 194.426 5.928V5.4C194.426 5.28 194.354 5.208 194.234 5.16C193.706 5.04 192.914 4.992 191.834 4.992ZM200.851 4.992C198.763 4.992 197.395 5.424 196.699 6.312C196.027 7.176 195.691 8.928 195.691 11.544C195.691 14.184 196.027 15.936 196.699 16.824C197.395 17.688 198.763 18.12 200.851 18.12C202.939 18.12 204.331 17.688 205.003 16.824C205.675 15.936 206.011 14.184 206.011 11.544C206.011 8.928 205.675 7.176 205.003 6.312C204.331 5.424 202.939 4.992 200.851 4.992ZM200.851 6.144C202.459 6.144 203.515 6.504 203.995 7.224C204.499 7.92 204.739 9.36 204.739 11.544C204.739 13.728 204.499 15.192 203.995 15.912C203.515 16.608 202.459 16.968 200.851 16.968C199.243 16.968 198.211 16.608 197.707 15.912C197.227 15.192 196.987 13.728 196.987 11.544C196.987 9.36 197.227 7.92 197.707 7.224C198.211 6.504 199.243 6.144 200.851 6.144ZM218.293 5.16C218.149 5.16 218.077 5.232 218.077 5.376V16.968H214.069C212.701 16.968 212.053 16.872 211.381 16.32C210.733 15.768 210.517 14.712 210.517 12.864V5.376C210.517 5.232 210.445 5.16 210.301 5.16H209.485C209.317 5.16 209.245 5.232 209.245 5.376V12.864C209.245 15.168 209.557 16.512 210.421 17.256C211.309 17.952 212.293 18.12 214.237 18.12C216.325 18.12 217.957 18.048 219.085 17.88C219.253 17.832 219.349 17.76 219.349 17.64V5.376C219.349 5.232 219.277 5.16 219.133 5.16H218.293ZM228.211 4.992C226.123 4.992 224.515 5.088 223.363 5.256C223.195 5.28 223.099 5.352 223.099 5.496V17.784C223.099 17.928 223.171 18 223.315 18H224.155C224.299 18 224.371 17.928 224.371 17.784V6.144H228.379C229.747 6.144 230.395 6.24 231.043 6.792C231.715 7.344 231.931 8.424 231.931 10.272V17.784C231.931 17.928 232.003 18 232.147 18H232.963C233.131 18 233.203 17.928 233.203 17.784V10.272C233.203 7.944 232.891 6.624 232.003 5.88C231.139 5.136 230.155 4.992 228.211 4.992ZM245.52 0.215999C245.376 0.215999 245.304 0.287999 245.304 0.456V5.112C244.056 5.04 242.904 4.992 241.872 4.992C239.04 5.064 237.744 5.376 237.024 6.96C236.64 8.016 236.496 9.24 236.496 11.472C236.496 12.888 236.544 14.016 236.664 14.808C236.784 15.6 237.024 16.248 237.384 16.8C238.128 17.856 239.28 18.12 241.488 18.12C243.024 18.12 244.608 18 246.264 17.76C246.48 17.712 246.576 17.592 246.576 17.4V0.456C246.576 0.287999 246.504 0.215999 246.336 0.215999H245.52ZM245.304 16.704C243.96 16.872 242.688 16.968 241.488 16.968C239.784 16.968 238.944 16.752 238.392 15.864C237.84 14.928 237.768 13.848 237.768 11.448C237.768 9.888 237.816 9.048 238.008 8.184C238.128 7.728 238.272 7.392 238.44 7.176C239.04 6.408 240.024 6.144 241.872 6.144H245.304V16.704Z"
          fill="white"/>
</svg>
