<svg width="160" height="48" viewBox="0 0 160 48" fill="none" xmlns="http://www.w3.org/2000/svg">
    <path d="M140.656 16.0527V25.4802L130.683 19.3399L130.675 19.336L125.339 16.0527H125.335V34.9999H130.683V25.5724L146 34.9999V28.7712V16.0527H140.656Z"
          fill="white"/>
    <path d="M121.361 35L108.574 16.0758V16.0796L108.57 16.0758L105.357 20.8299L95.7834 35H102.218L108.574 25.5916L114.927 35H121.361Z"
          fill="white"/>
    <path d="M95.7873 19.9813V16.072H76.4846V19.9736H83.4622V35.0001H88.8059V19.9813H95.7873Z" fill="white"/>
    <path d="M71.0983 10.6881C71.0983 11.2198 70.939 11.7395 70.6405 12.1815C70.342 12.6236 69.9177 12.9681 69.4213 13.1716C68.925 13.375 68.3788 13.4283 67.8518 13.3245C67.3249 13.2208 66.8408 12.9648 66.4609 12.5889C66.081 12.2129 65.8223 11.734 65.7175 11.2125C65.6127 10.6911 65.6665 10.1506 65.8721 9.65941C66.0777 9.16822 66.4259 8.7484 66.8726 8.45303C67.3193 8.15765 67.8445 8 68.3818 8C69.1023 8 69.7932 8.28321 70.3026 8.78732C70.8121 9.29144 71.0983 9.97517 71.0983 10.6881Z"
          fill="#F3931B"/>
    <path d="M71.0633 16.0527H65.7157V34.9999H71.0633V16.0527Z" fill="white"/>
    <path d="M61.6255 35L48.8424 16.0758L48.8385 16.0796V16.0758L45.6252 20.8299L36.0515 35H42.4857L48.8385 25.5916L55.1912 35H61.6255Z"
          fill="white"/>
    <path d="M24.2541 30.9218H18.3476V20.2885H24.2541C25.609 20.384 26.8771 20.984 27.8028 21.9677C28.7286 22.9513 29.2433 24.2456 29.2433 25.5898C29.2433 26.9339 28.7286 28.2282 27.8028 29.2118C26.8771 30.1955 25.609 30.7955 24.2541 30.8911V30.9218ZM34.6971 25.5149C34.1654 16.2985 25.4959 16.072 25.4959 16.072L13 16.0643V35H25.1195C35.1434 34.4202 34.6932 25.5264 34.6932 25.5264"
          fill="white"/>
</svg>
